<svg width="141" height="42" viewBox="0 0 141 42" fill="none" xmlns="http://www.w3.org/2000/svg">
<path d="M48.4054 0C56.7935 0 64.2063 0.598103 71.4891 1.92722C80.5275 3.52216 89.5659 5.38292 98.6043 7.11077C103.416 8.04115 108.228 8.90507 112.975 9.90191C115.381 10.4336 117.786 11.231 120.192 11.962C120.778 12.1614 121.363 12.4937 121.818 12.826C122.078 12.9589 122.273 13.4241 122.208 13.6899C122.208 13.8892 121.753 14.1551 121.493 14.1551C120.322 14.1551 119.152 14.288 117.982 14.0886C113.43 13.2247 108.878 12.3608 104.391 11.231C93.1422 8.37342 81.8279 6.11393 70.3836 4.31962C61.7354 2.99051 52.9571 2.25949 44.1788 2.72468C37.6763 3.05696 31.1739 3.4557 24.8665 5.25C20.0547 6.57912 15.568 8.63925 11.7966 12.0949C7.50501 16.0158 5.03408 21 3.86364 26.6488C3.53852 28.1772 3.27842 29.7057 2.88827 31.2342C2.75822 31.8323 2.6932 32.6962 1.78286 32.6962C0.872517 32.6962 0.547393 31.9652 0.287295 31.2342C-0.2329 29.3734 0.0271996 27.5127 0.482371 25.7184C2.04296 19.8038 5.29418 15.0855 9.71584 11.0317C15.3079 5.91456 22.0055 2.92405 29.3532 1.59494C36.1158 0.398735 42.7483 0.132911 48.4054 0Z" fill="black"/>
<path d="M81.6979 10.8323C82.8033 10.9652 83.8437 11.0316 84.8191 11.0981C84.9491 11.0981 85.1442 11.4304 85.1442 11.5633C85.2092 12.0285 85.1442 12.4937 85.1442 13.0918C85.5994 12.7595 85.9895 12.4937 86.3797 12.2943C89.0457 10.8987 91.7117 10.9652 94.3777 12.2278C98.8644 14.3544 101.725 19.2057 101.465 24.1899C101.205 29.7057 96.0683 34.0253 90.6713 33.2943C88.6555 33.0285 86.8999 32.2975 85.4693 30.8355C85.4043 30.769 85.3393 30.7025 85.2092 30.6361C85.1442 30.6361 85.1442 30.6361 84.9491 30.5696C84.9491 34.3576 84.9491 38.1456 84.9491 42C83.7137 42 82.6733 42 81.5679 42C81.6979 31.6329 81.6979 21.2658 81.6979 10.8323ZM98.1491 22.9937C98.1491 20.3354 96.0683 17.1456 93.5324 15.75C91.7767 14.8196 90.021 14.8861 88.3304 16.0158C85.9895 17.6108 84.8191 19.8703 85.2092 22.7279C85.5994 25.7848 88.0703 28.7089 90.7363 29.307C94.1826 30.2373 98.1491 26.8481 98.1491 22.9937Z" fill="black"/>
<path d="M79.1618 23.3924C73.7648 23.4589 68.4978 23.5918 62.9707 23.6582C63.1658 24.3893 63.2958 24.9209 63.4909 25.3196C65.3116 28.9747 70.3185 30.1709 73.5047 27.712C74.1549 27.2469 74.5451 26.3829 75.1953 25.5855C76.1057 25.5855 77.3411 25.5855 78.6416 25.5855C78.6416 26.9146 78.2515 28.0443 77.5362 29.0412C75.8455 31.3671 73.5047 32.4969 70.7736 32.8956C64.2712 33.8924 59.3293 28.4431 59.3293 22.3956C59.3293 18.076 60.8899 14.5538 64.2712 11.962C68.4978 8.7057 73.8948 9.56963 77.081 13.8893C78.9667 16.4146 79.812 20.4019 79.1618 23.3924ZM75.6505 19.3386C75.0002 16.0823 71.814 13.6234 68.8879 14.0222C66.417 14.3544 63.1658 17.6108 63.2308 19.7374C67.3273 19.6044 71.4889 19.4715 75.6505 19.3386Z" fill="black"/>
<path d="M41.4477 25.9178C41.9029 26.6488 42.228 27.4463 42.7482 27.9779C44.894 30.2374 47.495 30.5697 50.3561 29.5728C51.7216 29.0412 52.957 28.3766 53.4122 26.7153C53.4772 26.5823 53.7373 26.4494 53.8674 26.383C54.9728 26.2501 56.0132 26.1836 57.3137 26.1172C57.1836 26.7817 57.2486 27.3798 56.9885 27.845C56.4033 28.9083 55.8831 30.038 54.9728 30.8355C51.7216 33.6931 47.9501 34.4906 43.9186 33.0286C39.497 31.3672 37.2211 26.9811 38.1965 22.1963C39.3019 17.0127 44.4388 12.5602 49.5107 12.5602C53.7373 12.5602 56.9235 15.2849 57.6388 19.538C57.8339 20.7342 57.7688 21.9969 57.8339 23.2596C57.8989 23.8577 57.6388 24.1235 57.0536 24.1235C54.6477 24.3228 52.2418 24.5887 49.8359 24.788C47.1699 25.0539 44.5689 25.3197 41.9029 25.5855C41.8379 25.7184 41.7728 25.7849 41.4477 25.9178ZM54.1275 20.6678C53.6073 18.1425 50.7462 16.0823 48.3403 16.3482C45.1541 16.7469 43.1383 18.807 41.7728 21.5982C41.7078 21.7311 41.7078 21.9304 41.6428 22.2627C45.8694 21.7311 49.9659 21.1994 54.1275 20.6678Z" fill="black"/>
<path d="M8.15536 18.6741C9.19576 18.6741 10.2361 18.6076 11.2765 18.6741C11.4716 18.6741 11.7967 19.0064 11.9268 19.2722C13.1622 22.4621 14.3977 25.6519 15.6332 28.8418C15.7632 29.1076 15.8282 29.3735 16.0233 29.7722C16.4135 28.6425 16.8036 27.6456 17.1938 26.6488C18.1691 23.9241 19.1445 21.1994 20.1199 18.4747C20.2499 18.076 20.445 17.8102 20.9002 17.8102C21.7455 17.7437 22.5908 17.6773 23.3711 17.4779C23.9563 17.345 24.1514 17.6108 24.3465 18.1424C25.5819 21.3988 26.8174 24.6551 28.0528 27.9114C28.1829 28.1773 28.2479 28.4431 28.443 28.8418C28.573 28.5095 28.7031 28.3102 28.7681 28.1108C30.1336 24.2564 31.4341 20.4019 32.7996 16.5475C32.9297 16.0823 33.1248 15.883 33.6449 15.8165C34.6203 15.6836 35.5957 15.4842 36.7011 15.2849C36.0509 17.2785 35.4656 19.0728 34.8804 20.9336C33.5149 25.0538 32.0844 29.1741 30.7188 33.3608C30.5238 33.8925 30.2637 34.0918 29.7435 34.0918C28.9632 34.0918 28.1829 34.0918 27.4026 34.2247C26.8174 34.2912 26.5573 34.0918 26.3622 33.4937C25.1918 30.2374 23.9563 26.9811 22.7208 23.7247C22.5908 23.4589 22.4607 23.1266 22.2657 22.7279C22.1356 23.1266 22.0056 23.3924 21.8755 23.6583C20.6401 27.0475 19.4046 30.4368 18.1691 33.8925C17.9741 34.4241 17.714 34.6235 17.1287 34.6235C16.2834 34.6235 15.4381 34.6899 14.5278 34.6235C14.2677 34.6235 13.9425 34.4241 13.8775 34.2247C11.9268 29.1076 10.0411 23.9906 8.15536 18.8735C8.09034 18.9399 8.15536 18.8735 8.15536 18.6741Z" fill="black"/>
<path d="M119.347 18.6076C119.412 18.0095 119.412 17.5443 119.412 17.0126C120.452 17.1455 121.493 17.2784 122.468 17.5443C122.598 17.5443 122.793 18.0095 122.793 18.2753C122.793 22.5949 122.793 26.9145 122.728 31.1677C122.728 32.231 122.728 33.2943 122.728 34.4905C121.558 34.424 120.517 34.3576 119.347 34.2911C119.347 33.7595 119.282 33.2943 119.282 32.6962C119.087 32.8291 118.892 32.8955 118.697 32.962C112.584 36.8164 104.326 32.962 103.091 25.7183C102.766 23.8576 102.831 21.9968 103.481 20.2025C104.716 16.8133 107.903 14.7531 111.479 15.0189C114.275 15.2183 116.811 16.1487 118.892 18.2088C119.022 18.3417 119.087 18.4082 119.347 18.6076ZM113.235 31.1677C115.641 31.1677 118.176 29.5728 119.022 27.2468C119.282 26.5158 119.412 25.5854 119.282 24.7879C118.762 21.7974 115.51 18.8069 112.519 18.5411C109.593 18.2753 106.537 20.8671 106.407 23.7911C106.212 27.3797 109.723 31.1677 113.235 31.1677Z" fill="black"/>
<path d="M141 18.6741C140.935 19.671 140.935 20.5349 140.87 21.4653C140.285 21.5317 139.7 21.5982 139.114 21.7311C135.993 22.3292 134.433 24.19 134.433 27.4463C134.433 29.9051 134.433 32.364 134.433 34.8893C133.262 34.8893 132.222 34.8893 131.051 34.8893C131.051 29.44 131.051 24.057 131.051 18.6077C132.157 18.6741 133.262 18.807 134.368 18.8735C134.368 19.2722 134.433 19.671 134.433 20.0697C136.578 19.0064 138.659 18.5412 141 18.6741Z" fill="black"/>
<path d="M128.906 34.6234C127.67 34.6234 126.63 34.6234 125.524 34.6234C125.524 29.0411 125.524 23.5253 125.524 17.8766C126.63 18.0095 127.605 18.1424 128.646 18.2753C128.776 18.2753 128.906 18.6076 128.906 18.7405C128.906 24.057 128.906 29.307 128.906 34.6234Z" fill="black"/>
<path d="M130.011 14.5538C129.946 14.7531 129.881 14.9525 129.816 15.0854C129.426 15.8164 128.06 16.4145 127.215 16.1487C126.37 15.8829 126.045 15.2183 126.435 14.4209C127.02 13.0253 128.776 12.7595 129.686 13.8892C129.816 14.0886 129.881 14.3544 130.011 14.5538Z" fill="black"/>
</svg>